<svg xmlns="http://www.w3.org/2000/svg" xmlns:xlink="http://www.w3.org/1999/xlink" width="30" height="30" viewBox="0 0 30 30">
  <defs>
    <clipPath id="clip-path">
      <rect width="30" height="30" fill="none"/>
    </clipPath>
  </defs>
  <g id="add_item" clip-path="url(#clip-path)">
    <g id="add_item-2" data-name="add_item" transform="translate(-65.21 -238.21)">
      <circle id="Ellipse_43" data-name="Ellipse 43" cx="15" cy="15" r="15" transform="translate(65.21 238.21)" fill="#e9edf0"/>
      <g id="add" transform="translate(73.428 244.732)">
        <g id="Group_70" data-name="Group 70" transform="translate(0)">
          <g id="Group_69" data-name="Group 69">
            <path id="Path_83" data-name="Path 83" d="M35.226,2.726H33.453a3.743,3.743,0,0,0-7.2,0H24.03l-.111-.381a1.37,1.37,0,0,0-1.308-.981h-.937a.341.341,0,1,0,0,.681h.937a.684.684,0,0,1,.654.491l2.121,7.271L24.3,11.164a1.1,1.1,0,0,0,.857,1.783H34.62a.341.341,0,1,0,0-.681H25.156a.416.416,0,0,1-.325-.676l1.095-1.368h6.683a1.369,1.369,0,0,0,1.233-.783l2.378-5.052a1.106,1.106,0,0,0,.1-.467v-.1A1.1,1.1,0,0,0,35.226,2.726ZM29.85.681a3.066,3.066,0,1,1-3.066,3.066A3.07,3.07,0,0,1,29.85.681Zm5.792,3.238a.417.417,0,0,1-.04.177L33.225,9.148a.685.685,0,0,1-.617.391H26.018L24.229,3.407H26.12c-.01.112-.017.226-.017.341a3.748,3.748,0,1,0,7.5,0c0-.115-.007-.228-.017-.341h1.646a.416.416,0,0,1,.416.416v.1Z" transform="translate(-21.333)" fill="#0464b7"/>
            <path id="Path_84" data-name="Path 84" d="M108.029,426.667a1.363,1.363,0,1,0,1.363,1.363A1.364,1.364,0,0,0,108.029,426.667Zm0,2.044a.681.681,0,1,1,.681-.681A.682.682,0,0,1,108.029,428.711Z" transform="translate(-103.94 -413.039)" fill="#0464b7"/>
            <path id="Path_85" data-name="Path 85" d="M364.029,426.667a1.363,1.363,0,1,0,1.363,1.363A1.364,1.364,0,0,0,364.029,426.667Zm0,2.044a.681.681,0,1,1,.681-.681A.682.682,0,0,1,364.029,428.711Z" transform="translate(-351.764 -413.039)" fill="#0464b7"/>
            <path id="Path_86" data-name="Path 86" d="M235.007,66.044h1.022v1.022a.341.341,0,0,0,.681,0V66.044h1.022a.341.341,0,0,0,0-.681H236.71V64.341a.341.341,0,0,0-.681,0v1.022h-1.022a.341.341,0,0,0,0,.681Z" transform="translate(-227.852 -61.956)" fill="#0464b7"/>
          </g>
        </g>
      </g>
    </g>
  </g>
</svg>
