<svg xmlns="http://www.w3.org/2000/svg" width="28" height="28" viewBox="0 0 28 28">
  <g id="add_item" data-name="add item" transform="translate(-64.537 -237.537)">
    <circle id="Ellipse_43" data-name="Ellipse 43" cx="14" cy="14" r="14" transform="translate(64.537 237.537)" fill="#e9edf0"/>
    <g id="add-file" transform="translate(73.321 244.582)">
      <g id="Group_72" data-name="Group 72">
        <g id="Group_71" data-name="Group 71">
          <path id="Path_91" data-name="Path 91" d="M72.114,7.658V2.608a.29.29,0,0,0-.085-.2L69.711.085a.29.29,0,0,0-.2-.085H65.159A1.16,1.16,0,0,0,64,1.159V9.853a1.16,1.16,0,0,0,1.159,1.159h2.913a3.187,3.187,0,1,0,4.042-3.354ZM69.8.989l1.329,1.329h-.749a.58.58,0,0,1-.58-.58V.989Zm-4.637,9.443a.58.58,0,0,1-.58-.58V1.159a.58.58,0,0,1,.58-.58h4.057V1.739A1.16,1.16,0,0,0,70.376,2.9h1.159V7.549c-.1-.009-.192-.015-.29-.015a3.191,3.191,0,0,0-3.173,2.9H65.159Zm6.086,2.9a2.608,2.608,0,1,1,2.608-2.608A2.611,2.611,0,0,1,71.245,13.331Z" transform="translate(-64 0)" fill="#0464b7"/>
          <path id="Path_92" data-name="Path 92" d="M279.94,342.492h-.869v-.869a.29.29,0,1,0-.58,0v.869h-.869a.29.29,0,0,0,0,.58h.869v.869a.29.29,0,0,0,.58,0v-.869h.869a.29.29,0,0,0,0-.58Z" transform="translate(-271.536 -332.06)" fill="#0464b7"/>
        </g>
      </g>
    </g>
  </g>
</svg>
