<svg xmlns="http://www.w3.org/2000/svg" width="18.981" height="15.817" viewBox="0 0 18.981 15.817">
  <g id="briefcase" transform="translate(0 -42.666)">
    <g id="Group_52" data-name="Group 52" transform="translate(0 42.666)">
      <path id="Path_60" data-name="Path 60" d="M17.4,45.039H13.445v-.791a1.583,1.583,0,0,0-1.582-1.582H7.118a1.583,1.583,0,0,0-1.582,1.582v.791H1.582A1.583,1.583,0,0,0,0,46.62V56.9a1.583,1.583,0,0,0,1.582,1.582H17.4A1.583,1.583,0,0,0,18.981,56.9V46.62A1.583,1.583,0,0,0,17.4,45.039ZM6.327,44.248a.792.792,0,0,1,.791-.791h4.745a.792.792,0,0,1,.791.791v.791H6.327ZM18.19,56.9a.792.792,0,0,1-.791.791H1.582A.792.792,0,0,1,.791,56.9V51.146a1.564,1.564,0,0,0,.791.22H7.909v1.186a.4.4,0,0,0,.4.4h2.373a.4.4,0,0,0,.4-.4V51.366H17.4a1.563,1.563,0,0,0,.791-.22V56.9ZM8.7,52.157V50.575h1.582v1.582Zm9.491-2.373a.792.792,0,0,1-.791.791H11.072v-.4a.4.4,0,0,0-.4-.4H8.3a.4.4,0,0,0-.4.4v.4H1.582a.792.792,0,0,1-.791-.791V46.62a.792.792,0,0,1,.791-.791H17.4a.792.792,0,0,1,.791.791Z" transform="translate(0 -42.666)" fill="#0464b7"/>
    </g>
  </g>
</svg>
