<svg xmlns="http://www.w3.org/2000/svg" width="43.771" height="53.894" viewBox="0 0 43.771 53.894">
  <g id="delete" transform="translate(0.003 0.002)">
    <path id="Path_76" data-name="Path 76" d="M223.66,154.7a1.262,1.262,0,0,0-1.262,1.262v23.854a1.262,1.262,0,0,0,2.524,0V155.965A1.262,1.262,0,0,0,223.66,154.7Zm0,0" transform="translate(-194.331 -135.179)" fill="#0464b7"/>
    <path id="Path_77" data-name="Path 77" d="M105.66,154.7a1.262,1.262,0,0,0-1.262,1.262v23.854a1.262,1.262,0,0,0,2.524,0V155.965A1.262,1.262,0,0,0,105.66,154.7Zm0,0" transform="translate(-91.225 -135.179)" fill="#0464b7"/>
    <path id="Path_78" data-name="Path 78" d="M3.581,16.043v31.1a6.963,6.963,0,0,0,1.851,4.8,6.215,6.215,0,0,0,4.51,1.95h23.88a6.214,6.214,0,0,0,4.51-1.95,6.963,6.963,0,0,0,1.851-4.8v-31.1a4.821,4.821,0,0,0-1.237-9.481H32.484V4.984a4.958,4.958,0,0,0-5-4.985H16.279a4.958,4.958,0,0,0-5,4.985V6.562H4.818a4.821,4.821,0,0,0-1.237,9.481ZM33.822,51.367H9.942a4,4,0,0,1-3.837-4.228V16.154H37.659V47.139a4,4,0,0,1-3.837,4.228ZM13.8,4.984a2.432,2.432,0,0,1,2.474-2.461H27.486A2.432,2.432,0,0,1,29.96,4.984V6.562H13.8Zm-8.986,4.1H38.946a2.272,2.272,0,0,1,0,4.544H4.818a2.272,2.272,0,1,1,0-4.544Zm0,0" transform="translate(0 0)" fill="#0464b7"/>
    <path id="Path_79" data-name="Path 79" d="M164.66,154.7a1.262,1.262,0,0,0-1.262,1.262v23.854a1.262,1.262,0,0,0,2.524,0V155.965A1.262,1.262,0,0,0,164.66,154.7Zm0,0" transform="translate(-142.778 -135.179)" fill="#0464b7"/>
  </g>
</svg>
