<svg xmlns="http://www.w3.org/2000/svg" width="40.192" height="53.895" viewBox="0 0 40.192 53.895">
  <g id="download_1_" data-name="download (1)" transform="translate(-7.5)">
    <path id="Path_70" data-name="Path 70" d="M20.039,25.863a.913.913,0,1,0-1.292,1.292l9.115,9.115a.9.9,0,0,0,.645.269c.006,0,.013,0,.019,0s.012,0,.019,0a.9.9,0,0,0,.726-.386l9.035-9.035a.913.913,0,0,0-1.292-1.292L29.46,33.382V.913a.913.913,0,1,0-1.827,0V33.458Z" transform="translate(-0.95)" fill="#0464b7"/>
    <path id="Path_71" data-name="Path 71" d="M33.991,16a.913.913,0,1,0,0,1.827H45.866V53.452H9.327V17.827H21.2A.913.913,0,0,0,21.2,16H7.5V55.279H47.693V16Z" transform="translate(0 -1.385)" fill="#0464b7"/>
  </g>
</svg>
