<svg xmlns="http://www.w3.org/2000/svg" width="23.896" height="21.981" viewBox="0 0 23.896 21.981">
  <g id="download" transform="translate(0 -17.25)">
    <g id="Group_44" data-name="Group 44" transform="translate(0 17.25)">
      <path id="Path_56" data-name="Path 56" d="M23.211,228.25a.677.677,0,0,0-.685.675v6.144a3.052,3.052,0,0,1-3.068,3.027H4.437a3.052,3.052,0,0,1-3.068-3.027v-6.244a.677.677,0,0,0-.685-.675.677.677,0,0,0-.685.675v6.244a4.413,4.413,0,0,0,4.437,4.378H19.459A4.413,4.413,0,0,0,23.9,235.07v-6.144A.68.68,0,0,0,23.211,228.25Z" transform="translate(0 -217.466)" fill="#04c552"/>
      <path id="Path_57" data-name="Path 57" d="M140.722,33.736a.68.68,0,0,0,.475.2.659.659,0,0,0,.475-.2l4.293-4.293a.676.676,0,1,0-.956-.956l-3.137,3.142v-13.7a.675.675,0,1,0-1.351,0v13.7l-3.142-3.142a.676.676,0,0,0-.956.956Z" transform="translate(-129.249 -17.25)" fill="#04c552"/>
    </g>
  </g>
</svg>
