<svg xmlns="http://www.w3.org/2000/svg" width="13.484" height="13.416" viewBox="0 0 13.484 13.416">
  <g id="edit_business_icon" transform="translate(0 0)">
    <path id="Path_58" data-name="Path 58" d="M12.445,46.285a.336.336,0,0,0-.336.336V49.6A1.008,1.008,0,0,1,11.1,50.609H1.679A1.008,1.008,0,0,1,.672,49.6V40.851a1.009,1.009,0,0,1,1.007-1.007H4.661a.336.336,0,0,0,0-.672H1.679A1.681,1.681,0,0,0,0,40.851V49.6a1.681,1.681,0,0,0,1.679,1.679H11.1A1.681,1.681,0,0,0,12.781,49.6V46.62A.336.336,0,0,0,12.445,46.285Zm0,0" transform="translate(0 -37.865)" fill="#0464b7"/>
    <path id="Path_59" data-name="Path 59" d="M117.2.7a1.511,1.511,0,0,0-2.137,0l-5.991,5.991a.336.336,0,0,0-.086.148L108.2,9.687a.336.336,0,0,0,.413.413l2.844-.788a.336.336,0,0,0,.148-.086L117.6,3.235a1.513,1.513,0,0,0,0-2.137Zm-7.4,6.209,4.9-4.9,1.581,1.581-4.9,4.9Zm-.316.634,1.263,1.263-1.748.484Zm7.632-4.787-.356.356-1.581-1.581.356-.356a.839.839,0,0,1,1.187,0l.394.394A.841.841,0,0,1,117.124,2.76Zm0,0" transform="translate(-104.557 -0.261)" fill="#0464b7"/>
  </g>
</svg>
