<svg xmlns="http://www.w3.org/2000/svg" width="22.183" height="22.07" viewBox="0 0 22.183 22.07">
  <g id="edit" transform="translate(0 -0.261)">
    <path id="Path_58" data-name="Path 58" d="M20.473,50.873a.552.552,0,0,0-.552.552V56.33a1.659,1.659,0,0,1-1.657,1.657H2.762A1.659,1.659,0,0,1,1.1,56.33v-14.4a1.659,1.659,0,0,1,1.657-1.657H7.667a.552.552,0,0,0,0-1.1H2.762A2.765,2.765,0,0,0,0,41.934v14.4a2.765,2.765,0,0,0,2.762,2.762h15.5a2.765,2.765,0,0,0,2.762-2.762V51.425a.552.552,0,0,0-.552-.552Zm0,0" transform="translate(0 -36.762)" fill="#0464b7"/>
    <path id="Path_59" data-name="Path 59" d="M123.02.989a2.486,2.486,0,0,0-3.516,0l-9.856,9.856a.552.552,0,0,0-.142.243l-1.3,4.679a.552.552,0,0,0,.68.68l4.679-1.3a.552.552,0,0,0,.243-.142l9.856-9.856a2.489,2.489,0,0,0,0-3.516ZM110.852,11.2l8.066-8.066,2.6,2.6-8.066,8.066Zm-.52,1.043,2.078,2.079-2.875.8Zm12.555-7.875-.586.586-2.6-2.6.586-.586a1.381,1.381,0,0,1,1.953,0l.648.648A1.383,1.383,0,0,1,122.887,4.372Zm0,0" transform="translate(-102.213 0)" fill="#0464b7"/>
  </g>
</svg>
