<svg id="gear" xmlns="http://www.w3.org/2000/svg" width="13.746" height="13.746" viewBox="0 0 13.746 13.746">
  <g id="Group_54" data-name="Group 54">
    <g id="Group_53" data-name="Group 53">
      <path id="Path_61" data-name="Path 61" d="M13.529,5.278l-1.257-.315a5.817,5.817,0,0,0-.232-.555l.668-1.114a.286.286,0,0,0-.043-.35L10.8,1.081a.286.286,0,0,0-.35-.043l-1.114.668a5.767,5.767,0,0,0-.555-.232L8.468.217A.286.286,0,0,0,8.19,0H5.556a.286.286,0,0,0-.278.217L4.963,1.474a5.781,5.781,0,0,0-.555.232L3.294,1.038a.287.287,0,0,0-.35.043L1.082,2.945a.286.286,0,0,0-.043.35l.668,1.114a5.8,5.8,0,0,0-.232.555L.217,5.278A.286.286,0,0,0,0,5.556V8.19a.286.286,0,0,0,.217.278l1.257.315a5.817,5.817,0,0,0,.232.555l-.668,1.114a.286.286,0,0,0,.043.35l1.863,1.863a.287.287,0,0,0,.35.043l1.114-.668a5.8,5.8,0,0,0,.555.232l.315,1.257a.286.286,0,0,0,.278.217H8.19a.286.286,0,0,0,.278-.217l.315-1.257a5.817,5.817,0,0,0,.555-.232l1.114.668a.286.286,0,0,0,.35-.043L12.664,10.8a.286.286,0,0,0,.043-.35l-.668-1.114a5.8,5.8,0,0,0,.232-.555l1.257-.315a.286.286,0,0,0,.217-.278V5.556A.286.286,0,0,0,13.529,5.278Zm-.356,2.689-1.192.3a.286.286,0,0,0-.2.19,5.173,5.173,0,0,1-.32.766.286.286,0,0,0,.009.278l.634,1.056L10.555,12.1,9.5,11.468a.288.288,0,0,0-.278-.009,5.188,5.188,0,0,1-.766.32.286.286,0,0,0-.19.2l-.3,1.192H5.779l-.3-1.192a.286.286,0,0,0-.19-.2,5.188,5.188,0,0,1-.766-.32.285.285,0,0,0-.278.009L3.192,12.1,1.645,10.555,2.278,9.5a.286.286,0,0,0,.009-.278,5.173,5.173,0,0,1-.32-.766.286.286,0,0,0-.2-.19l-1.192-.3V5.779l1.192-.3a.286.286,0,0,0,.2-.19,5.173,5.173,0,0,1,.32-.766.286.286,0,0,0-.009-.278L1.645,3.192,3.192,1.644l1.056.634a.284.284,0,0,0,.278.009,5.173,5.173,0,0,1,.766-.32.286.286,0,0,0,.19-.2l.3-1.192H7.967l.3,1.192a.286.286,0,0,0,.19.2,5.173,5.173,0,0,1,.766.32A.287.287,0,0,0,9.5,2.278l1.056-.634L12.1,3.192l-.634,1.056a.286.286,0,0,0-.009.278,5.173,5.173,0,0,1,.32.766.286.286,0,0,0,.2.19l1.192.3V7.967Z" fill="#0464b7"/>
      <path id="Path_62" data-name="Path 62" d="M131.437,128a3.437,3.437,0,1,0,3.437,3.437A3.44,3.44,0,0,0,131.437,128Zm0,6.3a2.864,2.864,0,1,1,2.864-2.864A2.867,2.867,0,0,1,131.437,134.3Z" transform="translate(-124.563 -124.563)" fill="#0464b7"/>
    </g>
  </g>
</svg>
