<svg xmlns="http://www.w3.org/2000/svg" width="67.501" height="54.794" viewBox="0 0 67.501 54.794"><g transform="translate(0.001 3.742)"><path d="M395.86,107.124l-9.791,7.966-3.909-4.577a.956.956,0,1,0-1.455,1.242l4.515,5.289a.957.957,0,0,0,1.331.121l10.515-8.555a.957.957,0,1,0-1.207-1.484Zm0,0" transform="translate(-338.802 -98.532)" fill="#0464b7"/><path d="M50.147-3.742A17.346,17.346,0,0,0,32.826,12.6H6.421A6.43,6.43,0,0,0,.053,18.2a.953.953,0,0,0-.043.454C0,18.773,0,18.9,0,19.019V44.629a6.393,6.393,0,0,0,1.482,4.1.956.956,0,0,0,.318.353,6.4,6.4,0,0,0,4.621,1.97h38.26A6.4,6.4,0,0,0,49.3,49.087a1.033,1.033,0,0,0,.143-.116.955.955,0,0,0,.177-.24,6.39,6.39,0,0,0,1.484-4.1V30.939a17.354,17.354,0,0,0-.956-34.681ZM6.421,14.509h26.4a17.271,17.271,0,0,0,4.715,11.02A17.6,17.6,0,0,0,38.87,26.8L28.121,35.921a3.951,3.951,0,0,1-5.124,0L2,18.143a4.516,4.516,0,0,1,4.423-3.634Zm0,34.629a4.493,4.493,0,0,1-2.705-.9l11.539-11.8a.957.957,0,1,0-1.367-1.338L2.46,46.782a4.483,4.483,0,0,1-.548-2.153V20.576L21.761,37.383a5.857,5.857,0,0,0,7.6,0l11.066-9.385a17.136,17.136,0,0,0,8.766,2.945v13.69a4.474,4.474,0,0,1-.552,2.16l-11.5-11.7a.956.956,0,0,0-1.364,1.341l11.6,11.805a4.487,4.487,0,0,1-2.7.9ZM50.147,29.052a15.277,15.277,0,0,1-9.136-2.987,1.111,1.111,0,0,0-.128-.1,15.665,15.665,0,0,1-1.961-1.754,15.44,15.44,0,1,1,11.224,4.838Zm0,0" transform="translate(0 0)" fill="#0464b7"/></g></svg>