<svg xmlns="http://www.w3.org/2000/svg" width="42.616" height="53.968" viewBox="0 0 42.616 53.968">
  <g id="notification" transform="translate(-53.848)">
    <g id="Group_62" data-name="Group 62" transform="translate(53.848 0)">
      <g id="Group_61" data-name="Group 61" transform="translate(0 0)">
        <path id="Path_72" data-name="Path 72" d="M94.854,39.849a5.514,5.514,0,0,1-1.8-4.058V25.3a1.054,1.054,0,0,0-2.108,0V35.791A7.627,7.627,0,0,0,93.432,41.4a2.74,2.74,0,0,1-1.849,4.763H58.7A2.74,2.74,0,0,1,56.848,41.4a7.627,7.627,0,0,0,2.481-5.614V23.611A15.814,15.814,0,0,1,82.038,9.382,7.807,7.807,0,1,0,83.423,7.72a17.874,17.874,0,0,0-5-1.723,3.9,3.9,0,1,0-6.572,0A17.948,17.948,0,0,0,57.221,23.611V35.791a5.514,5.514,0,0,1-1.8,4.058A4.848,4.848,0,0,0,58.7,48.276h9.78a6.746,6.746,0,0,0,13.326,0h9.78a4.848,4.848,0,0,0,3.271-8.427ZM88.664,7.8a5.692,5.692,0,1,1-5.692,5.692A5.7,5.7,0,0,1,88.664,7.8ZM75.14,2.108A1.792,1.792,0,1,1,73.348,3.9,1.794,1.794,0,0,1,75.14,2.108Zm0,49.752a4.645,4.645,0,0,1-4.516-3.584h9.031A4.645,4.645,0,0,1,75.14,51.86Z" transform="translate(-53.848 0)" fill="#0464b7"/>
      </g>
    </g>
    <g id="Group_64" data-name="Group 64" transform="translate(62.28 22.535)">
      <g id="Group_63" data-name="Group 63" transform="translate(0)">
        <path id="Path_73" data-name="Path 73" d="M134.9,213.791a1.054,1.054,0,0,0-1.054,1.054v.022a1.054,1.054,0,0,0,2.108,0v-.022A1.054,1.054,0,0,0,134.9,213.791Z" transform="translate(-133.848 -213.791)" fill="#0464b7"/>
      </g>
    </g>
    <g id="Group_66" data-name="Group 66" transform="translate(63.214 10.751)">
      <g id="Group_65" data-name="Group 65">
        <path id="Path_74" data-name="Path 74" d="M154.63,102a12.844,12.844,0,0,0-11.842,7.838,1.054,1.054,0,1,0,1.941.824,10.739,10.739,0,0,1,9.9-6.554,1.054,1.054,0,0,0,0-2.108Z" transform="translate(-142.704 -101.999)" fill="#0464b7"/>
      </g>
    </g>
    <g id="Group_68" data-name="Group 68" transform="translate(86.366 9.996)">
      <g id="Group_67" data-name="Group 67">
        <path id="Path_75" data-name="Path 75" d="M365.018,94.913a1.055,1.055,0,0,0-1.149.229l-1.212,1.212a1.054,1.054,0,0,0,.9,1.788v1.909a1.054,1.054,0,0,0,2.108,0V95.887A1.054,1.054,0,0,0,365.018,94.913Z" transform="translate(-362.348 -94.833)" fill="#0464b7"/>
      </g>
    </g>
  </g>
</svg>
