<svg xmlns="http://www.w3.org/2000/svg" width="42.246" height="54.252" viewBox="0 0 42.246 54.252"><g transform="translate(-0.055)"><path d="M41.763,10.984,21.373.119a1.013,1.013,0,0,0-.965.006L.582,10.99a1.015,1.015,0,0,0-.527.89V26.073a29.386,29.386,0,0,0,17.613,26.9l2.752,1.2a1.014,1.014,0,0,0,.808,0l3.1-1.339A29.329,29.329,0,0,0,42.3,25.791V11.881a1.016,1.016,0,0,0-.538-.9ZM40.271,25.791a27.3,27.3,0,0,1-16.736,25.17l-.007,0-2.7,1.166-2.346-1.024a27.354,27.354,0,0,1-16.4-25.034V12.481L20.9,2.168,40.271,12.489Zm0,0" fill="#0464b7"/><path d="M81.629,150.276a1.015,1.015,0,0,0-1.544,1.318l5.362,6.279a1.015,1.015,0,0,0,1.412.129l12.488-10.16a1.015,1.015,0,0,0-1.281-1.575L86.347,155.8Zm0,0" transform="translate(-68.216 -124.861)" fill="#0464b7"/></g></svg>