<svg xmlns="http://www.w3.org/2000/svg" width="30" height="30" viewBox="0 0 30 30">
  <g id="pickdate" transform="translate(-71 -619)">
    <circle id="Ellipse_45" data-name="Ellipse 45" cx="15" cy="15" r="15" transform="translate(71 619)" fill="#e9edf0"/>
    <g id="calendar" transform="translate(79.063 626.567)">
      <path id="Path_110" data-name="Path 110" d="M15.627.991H13.892V.248A.248.248,0,0,0,13.645,0H11.91a.248.248,0,0,0-.248.248V.991H6.212V.248A.248.248,0,0,0,5.964,0H4.23a.248.248,0,0,0-.248.248V.991H2.248A.248.248,0,0,0,2,1.239V14.618a.248.248,0,0,0,.248.248H15.627a.248.248,0,0,0,.248-.248V1.239A.248.248,0,0,0,15.627.991ZM12.158.5H13.4V1.982H12.158V.5ZM4.478.5H5.716V1.982H4.478V.5ZM2.5,1.487H3.982V2.23a.248.248,0,0,0,.248.248H5.964a.248.248,0,0,0,.248-.248V1.487h5.451V2.23a.248.248,0,0,0,.248.248h1.734a.248.248,0,0,0,.248-.248V1.487h1.487v2.23H2.5Zm0,12.883V4.212H15.379V14.37Z" transform="translate(-2)" fill="#363c41"/>
      <path id="Path_111" data-name="Path 111" d="M17.689,23H11v7.185h9.415V23H17.689Zm-1.734.5h1.734V25.23H15.955Zm1.734,3.964H15.955V25.725h1.734Zm-3.964-1.734H15.46V27.46H13.725Zm0-2.23H15.46V25.23H13.725Zm-2.23,0H13.23V25.23H11.5Zm0,2.23H13.23V27.46H11.5Zm1.734,3.964H11.5V27.955H13.23Zm2.23,0H13.725V27.955H15.46Zm2.23,0H15.955V27.955h1.734Zm2.23,0H18.185V27.955h1.734Zm0-2.23H18.185V25.725h1.734Zm0-3.964V25.23H18.185V23.5Z" transform="translate(-8.77 -17.302)" fill="#363c41"/>
    </g>
  </g>
</svg>
