<svg xmlns="http://www.w3.org/2000/svg" width="29" height="29" viewBox="0 0 29 29">
  <g id="send_via_email_unselected" transform="translate(-92 -206)">
    <circle id="Ellipse_43" data-name="Ellipse 43" cx="14.5" cy="14.5" r="14.5" transform="translate(92 206)" fill="#e9edf0"/>
    <g id="email" transform="translate(98.944 214.145)">
      <g id="Group_79" data-name="Group 79" transform="translate(0 0)">
        <g id="Group_78" data-name="Group 78">
          <path id="Path_102" data-name="Path 102" d="M14.627,5.6a.23.23,0,0,0-.01-.049.244.244,0,0,0-.014-.042.219.219,0,0,0-.024-.037.23.23,0,0,0-.032-.038s-.006-.008-.01-.011L12.192,3.6V1.71A.732.732,0,0,0,11.46.979H8.818L7.76.157a.723.723,0,0,0-.889,0L5.812.979H3.17a.731.731,0,0,0-.731.731V3.6L.094,5.419s-.006.008-.01.011a.229.229,0,0,0-.032.038.218.218,0,0,0-.024.037.241.241,0,0,0-.014.042A.231.231,0,0,0,0,5.6c0,.005,0,.01,0,.015V13.9a.723.723,0,0,0,.143.43s0,0,0,.007l.008.007a.728.728,0,0,0,.576.287H13.9a.728.728,0,0,0,.578-.289l.007-.006,0-.007a.723.723,0,0,0,.143-.43V5.612C14.63,5.607,14.627,5.6,14.627,5.6ZM7.169.542a.234.234,0,0,1,.291,0l.563.437H6.608ZM.793,14.146,7.169,9.193a.234.234,0,0,1,.291,0l6.377,4.952Zm13.349-.38L7.76,8.808a.723.723,0,0,0-.889,0L.488,13.766V5.983l4,3.1a.244.244,0,0,0,.3-.386L.723,5.548,2.439,4.215V6.1a.244.244,0,1,0,.488,0V1.71a.244.244,0,0,1,.244-.244h8.29a.244.244,0,0,1,.244.244V6.1a.244.244,0,1,0,.488,0V4.215l1.715,1.333L9.841,8.706a.244.244,0,1,0,.3.385l4-3.108v7.783Z" transform="translate(-0.001 -0.004)" fill="#0464b7"/>
          <path id="Path_103" data-name="Path 103" d="M158.895,71.784V70.9a2.66,2.66,0,1,0-2.66,2.66.222.222,0,1,0,0-.443,2.217,2.217,0,1,1,2.217-2.217v.887a.443.443,0,1,1-.887,0V70.9a.222.222,0,0,0-.443,0,.887.887,0,1,1-.887-.887.222.222,0,1,0,0-.443,1.33,1.33,0,1,0,.9,2.31.884.884,0,0,0,1.764-.093Z" transform="translate(-148.92 -66.464)" fill="#0464b7"/>
        </g>
      </g>
    </g>
  </g>
</svg>
