<svg xmlns="http://www.w3.org/2000/svg" width="29" height="29" viewBox="0 0 29 29">
  <g id="send_via_whatsapp_selected" transform="translate(-151 -207)">
    <circle id="Ellipse_43" data-name="Ellipse 43" cx="14.5" cy="14.5" r="14.5" transform="translate(151 207)" fill="#007fee"/>
    <g id="whatsapp" transform="translate(155.375 211.375)">
      <g id="Group_77" data-name="Group 77" transform="translate(3.625 3.625)">
        <path id="Path_100" data-name="Path 100" d="M6.906,0a6.908,6.908,0,0,0-5.86,10.562c-.273.956-.766,2.764-.771,2.782a.266.266,0,0,0,.334.324l2.738-.842A6.907,6.907,0,1,0,6.906,0Zm0,13.281a6.359,6.359,0,0,1-3.382-.97.266.266,0,0,0-.141-.04.27.27,0,0,0-.078.012l-2.39.736c.176-.641.491-1.787.674-2.425a.267.267,0,0,0-.032-.218,6.376,6.376,0,1,1,5.349,2.906Z" fill="#fdfeff"/>
        <path id="Path_101" data-name="Path 101" d="M18.277,15.712c-.49-.272-.908-.545-1.213-.745-.233-.152-.4-.262-.524-.324a.6.6,0,0,0-.7.05.266.266,0,0,0-.033.04,3.734,3.734,0,0,1-.962,1.078,6.4,6.4,0,0,1-1.633-1.057,3.536,3.536,0,0,1-1.292-1.633c.482-.5.655-.808.655-1.162a7.517,7.517,0,0,0-1.008-2.047c-.155-.155-.5-.179-1.037-.073a.268.268,0,0,0-.136.073,3.465,3.465,0,0,0-.857,3.471c.788,2.048,2.81,4.429,5.388,4.816a5.587,5.587,0,0,0,.825.066,2.445,2.445,0,0,0,2.664-2.277A.265.265,0,0,0,18.277,15.712ZM15,17.674c-2.726-.409-4.444-3.11-4.971-4.481a2.924,2.924,0,0,1,.684-2.847,2,2,0,0,1,.491-.034,9.539,9.539,0,0,1,.835,1.648c0,.139-.045.334-.586.875a.264.264,0,0,0-.078.188c0,1.391,2.934,3.32,3.453,3.32.452,0,1.041-.759,1.376-1.254a.252.252,0,0,1,.1.031c.1.048.261.156.471.293.277.181.644.421,1.078.67C17.655,17.031,17.1,17.99,15,17.674Z" transform="translate(-6.859 -7.179)" fill="#fdfeff"/>
      </g>
    </g>
  </g>
</svg>
