<svg xmlns="http://www.w3.org/2000/svg" width="54" height="54" viewBox="0 0 54 54"><path d="M27,0A27,27,0,1,0,54,27,27.031,27.031,0,0,0,27,0Zm0,51.923A24.923,24.923,0,1,1,51.923,27,24.952,24.952,0,0,1,27,51.923Z" fill="#0464b7"/><path d="M27,0A27,27,0,1,0,54,27,27.031,27.031,0,0,0,27,0Zm0,51.923A24.923,24.923,0,1,1,51.923,27,24.952,24.952,0,0,1,27,51.923Z" fill="#0464b7"/><path d="M40.127,15.336,23.66,32.626l-9.92-7.407a1.125,1.125,0,0,0-1.505.156.956.956,0,0,0,.167,1.406l10.714,8a1.119,1.119,0,0,0,.67.219,1.1,1.1,0,0,0,.8-.336l17.143-18a.953.953,0,0,0-.089-1.411A1.125,1.125,0,0,0,40.127,15.336Z" transform="translate(0 0.937)" fill="#0464b7"/></svg>