<svg xmlns="http://www.w3.org/2000/svg" width="46" height="46" viewBox="0 0 46 46">
  <g id="swtich_business" transform="translate(6091 -10182)">
    <circle id="Ellipse_42" data-name="Ellipse 42" cx="23" cy="23" r="23" transform="translate(-6091 10182)" fill="#e9edf0"/>
    <g id="briefcase" transform="translate(-6080.5 10195.864)">
      <g id="Group_52" data-name="Group 52">
        <path id="Path_60" data-name="Path 60" d="M22.478,45.731H17.369V44.709a2.045,2.045,0,0,0-2.043-2.043H9.2a2.045,2.045,0,0,0-2.043,2.043v1.022H2.043A2.045,2.045,0,0,0,0,47.775V61.057A2.045,2.045,0,0,0,2.043,63.1H22.478a2.045,2.045,0,0,0,2.043-2.043V47.775A2.045,2.045,0,0,0,22.478,45.731Zm-14.3-1.022A1.023,1.023,0,0,1,9.2,43.688h6.13a1.023,1.023,0,0,1,1.022,1.022v1.022H8.174ZM23.5,61.057a1.023,1.023,0,0,1-1.022,1.022H2.043a1.023,1.023,0,0,1-1.022-1.022V53.621a2.02,2.02,0,0,0,1.022.284h8.174v1.533a.511.511,0,0,0,.511.511h3.065a.511.511,0,0,0,.511-.511V53.9h8.174a2.02,2.02,0,0,0,1.022-.284v7.436Zm-12.261-6.13V52.883h2.043v2.043ZM23.5,51.862a1.023,1.023,0,0,1-1.022,1.022H14.3v-.511a.511.511,0,0,0-.511-.511H10.728a.511.511,0,0,0-.511.511v.511H2.043a1.023,1.023,0,0,1-1.022-1.022V47.775a1.023,1.023,0,0,1,1.022-1.022H22.478A1.023,1.023,0,0,1,23.5,47.775Z" transform="translate(0 -42.666)" fill="#363c41"/>
      </g>
    </g>
  </g>
</svg>
