<svg xmlns="http://www.w3.org/2000/svg" width="17.105" height="17.196" viewBox="0 0 17.105 17.196">
  <g id="switch" transform="translate(-1.36 0)">
    <g id="Group_58" data-name="Group 58" transform="translate(1.993 7.827)">
      <g id="Group_57" data-name="Group 57" transform="translate(0)">
        <path id="Path_65" data-name="Path 65" d="M36.589,237.618l-5.746-4.524a.251.251,0,0,0-.406.2v2.916H26.39a.251.251,0,1,0,0,.5h4.3a.251.251,0,0,0,.251-.251v-2.651l5.084,4-5.129,3.847v-2.53a.251.251,0,0,0-.251-.251H24.851a3.9,3.9,0,0,1-4.044-3.514,5,5,0,0,0,.544.4,7.064,7.064,0,0,0,4.053.944.251.251,0,1,0,0-.5,6.62,6.62,0,0,1-3.76-.851,3.708,3.708,0,0,1-.976-.852.251.251,0,0,0-.456.15A6.122,6.122,0,0,0,20.832,237a4.206,4.206,0,0,0,4.019,2.378h5.541v2.781a.251.251,0,0,0,.4.2l5.791-4.343a.251.251,0,0,0,0-.4Z" transform="translate(-20.212 -233.04)" fill="#0464b7"/>
      </g>
    </g>
    <g id="Group_60" data-name="Group 60" transform="translate(1.359 0)">
      <g id="Group_59" data-name="Group 59" transform="translate(0 0)">
        <path id="Path_66" data-name="Path 66" d="M17.211,5.409a4.206,4.206,0,0,0-4.019-2.378h-.643a.251.251,0,0,0,0,.5h.643a3.9,3.9,0,0,1,4.044,3.514A6.218,6.218,0,0,0,13.192,5.7H7.356a.251.251,0,0,0-.251.251V8.6l-5.084-4L7.15.753v2.53a.251.251,0,0,0,.251.251h4.2a.251.251,0,1,0,0-.5H7.652V.251a.251.251,0,0,0-.4-.2L1.46,4.394a.251.251,0,0,0,0,.4L7.2,9.316a.251.251,0,0,0,.406-.2V6.2h5.586a5.925,5.925,0,0,1,3.207.851,3.706,3.706,0,0,1,.976.852.251.251,0,0,0,.456-.151A6.122,6.122,0,0,0,17.211,5.409Z" transform="translate(-1.359 0)" fill="#0464b7"/>
      </g>
    </g>
  </g>
</svg>
