<svg xmlns="http://www.w3.org/2000/svg" width="19" height="19" viewBox="0 0 19 19">
  <path id="user" d="M19,9.5a9.5,9.5,0,1,0-15.916,7l-.009.008.308.26c.02.017.042.031.062.047.164.136.333.265.506.389.056.04.112.081.169.12q.277.191.567.362l.127.073c.212.121.428.234.649.339l.049.022a9.414,9.414,0,0,0,2.3.727l.064.011c.25.043.5.078.759.1l.094.007c.255.021.513.035.774.035s.514-.013.768-.034l.1-.007q.381-.035.752-.1l.065-.012a9.414,9.414,0,0,0,2.265-.71l.079-.036q.32-.15.626-.323l.152-.087c.186-.11.369-.224.546-.345.064-.044.126-.089.19-.135.152-.109.3-.222.445-.34.032-.026.067-.048.1-.075l.316-.264-.009-.008A9.475,9.475,0,0,0,19,9.5ZM.691,9.5a8.809,8.809,0,1,1,14.651,6.585,2.589,2.589,0,0,0-.308-.186l-2.925-1.462a.766.766,0,0,1-.426-.688V12.728c.068-.084.139-.178.213-.282a7.04,7.04,0,0,0,.9-1.77,1.254,1.254,0,0,0,.72-1.136V8.315a1.257,1.257,0,0,0-.306-.818V5.884a2.786,2.786,0,0,0-.65-2.026A3.888,3.888,0,0,0,9.5,2.764,3.89,3.89,0,0,0,6.437,3.858a2.787,2.787,0,0,0-.65,2.026V7.5a1.259,1.259,0,0,0-.306.818V9.539a1.257,1.257,0,0,0,.463.975,6.491,6.491,0,0,0,1.068,2.207v1a.771.771,0,0,1-.4.676l-2.732,1.49a2.5,2.5,0,0,0-.26.164A8.788,8.788,0,0,1,.691,9.5Z" fill="#0464b7"/>
</svg>
