<svg xmlns="http://www.w3.org/2000/svg" width="21.815" height="22.061" viewBox="0 0 21.815 22.061">
  <g id="user_2_" data-name="user (2)" transform="translate(-2.445)">
    <path id="Path_89" data-name="Path 89" d="M54.953,7.516A3.758,3.758,0,1,0,51.2,3.758,3.762,3.762,0,0,0,54.953,7.516Zm0-6.013A2.255,2.255,0,1,1,52.7,3.758,2.257,2.257,0,0,1,54.953,1.5Z" transform="translate(-46.307)" fill="#0464b7"/>
    <path id="Path_90" data-name="Path 90" d="M20.186,108.82l-6.359,6.359a6.2,6.2,0,0,0-11.381,3.408v.752H9.666l-.334.334-1.68,5.755,5.755-1.68L24.26,112.895Zm1.949,4.075L20.729,114.3l-1.949-1.949,1.406-1.406ZM4.008,117.836a4.7,4.7,0,0,1,8.725-1.564l-1.564,1.564Zm8.608,4.576-2.752.8.8-2.752,7.049-7.049,1.949,1.949Z" transform="translate(0 -103.367)" fill="#0464b7"/>
  </g>
</svg>
